<svg version="1" xmlns="http://www.w3.org/2000/svg" width="366.667" height="366.667" viewBox="0 0 275.000000 275.000000"><path d="M79.6 12.8c-1.5.3-1.7 1-1.2 3.5.8 3.9 2.6 5.8 6.8 7.1 2.3.8 3.9 2.3 5.3 5.1 1.9 3.7 2 6.1 2.1 33.7l.1 29.8-4.4 4c-4 3.6-6.9 9-5.6 10.4.3.3 2.3-.4 4.4-1.4 2-1.1 7.7-3.1 12.6-4.6 11.2-3.3 26.1-3.7 33.8-1 16 5.7 33.5 22.7 43.2 42.1 10.8 21.4 13.6 47.5 7.3 67.7-9.3 30-44.3 49-73.4 39.8-20.7-6.5-36.4-23.2-41.2-43.8-1.6-6.6-1.5-21.3.2-34.2 1.1-7.7 5.3-21.1 9.6-30 4.9-10.3 13.7-19.5 21-22.2 6.3-2.3 14.6-1.8 18.6 1.1 4.6 3.2 5.5 7.9 4.7 24-1 17.9-.8 19.7 2 26 6.7 14.5 24.7 22.8 36.6 16.8 3.5-1.8 5-3.4 7.3-8 2.5-5 2.9-7 2.9-14 0-18.3-9-34.9-22.3-41.4-5.8-2.8-26.4-9-32.7-9.9-2.6-.3-5.7-.8-6.8-1-1.1-.3-5.9-.5-10.7-.5-23.1 0-40.4 9.4-53.3 29.1-6.6 10-10.5 20.4-12.1 32-1.2 8.2-.3 23.5 1.6 28.4.5 1.4.7 2.6.5 2.6-.3 0 .2 1.9 1.1 4.3 7.4 19.6 19.7 35.6 33.6 43.5 13.4 7.7 31.7 11.3 53.3 10.7 15.1-.4 17.8-.7 30-3.1 31.2-6.3 46.8-15 57.9-32.7 8.9-14.2 12.9-29.2 13-48.7.1-15.9-.6-22-3.8-31-8.1-23.3-37.5-46.3-68.1-53.3-3.8-.9-10.8-2.3-15.5-3.2-4.7-.9-8.9-2-9.5-2.5-.6-.5-.9-12.3-.8-32.7 0-17.5.1-32 .2-32.3.1-.3 20.5-.5 45.4-.4 44.2.1 45.3.2 49.4 2.3 6.7 3.4 7.9 7.3 4.1 13.6-1.1 2.1-2.3 5.6-2.5 8-.4 3.5-.1 4.5 1.7 5.8 4.7 3.3 10.5-2.3 14.3-13.8 1.7-5 2.4-25.4.9-25.6-2.1-.3-160.1-.3-161.6-.1z"/></svg>